<svg xmlns="http://www.w3.org/2000/svg" xmlns:xlink="http://www.w3.org/1999/xlink" version="1.1" width="417.8561pt" height="428.20378pt" viewBox="0 0 417.8561 428.20378">
<g>
<path stroke-width=".751181" stroke-linecap="butt" stroke-dasharray=".751181,.751181" stroke-miterlimit="4" stroke-linejoin="miter" fill="none" stroke="#d40000" d="M148.633 74.016 163.836 17.277"/>
<path stroke-width=".75" stroke-linecap="butt" stroke-dasharray="3,.75" stroke-miterlimit="4" stroke-linejoin="miter" fill="none" stroke="#000000" d="M29.762 56.656V419.871"/>
<path stroke-width=".75" stroke-linecap="butt" stroke-dasharray="3,.75" stroke-miterlimit="4" stroke-linejoin="miter" fill="none" stroke="#000000" d="M49.262 56.656V419.871"/>
<path d="M80.602 239.066C80.602 342.742 62.875 426.785 41.012 426.785 19.145 426.785 1.418 342.742 1.418 239.066 1.418 135.395 19.145 51.352 41.012 51.352 62.875 51.352 80.602 135.395 80.602 239.066ZM80.602 239.066" fill="#ffcc00" fill-opacity=".12628"/>
<path stroke-width="2.83748" stroke-linecap="butt" stroke-miterlimit="4" stroke-linejoin="miter" fill="none" stroke="#aa8800" d="M80.602 239.066C80.602 342.742 62.875 426.785 41.012 426.785 19.145 426.785 1.418 342.742 1.418 239.066 1.418 135.395 19.145 51.352 41.012 51.352 62.875 51.352 80.602 135.395 80.602 239.066ZM80.602 239.066"/>
<path stroke-width=".75" stroke-linecap="butt" stroke-miterlimit="4" stroke-linejoin="miter" fill="none" stroke="#000000" d="M247.93 331.211 200.148 318.41"/>
<path transform="matrix(1,.267949,-.267949,1,0,0)" d="M273.59 247.043 276.488 244.142 266.344 247.044 276.487 249.939ZM273.59 247.043" fill-rule="evenodd"/>
<path transform="matrix(1,.267949,-.267949,1,0,0)" stroke-width=".772741" stroke-linecap="butt" stroke-miterlimit="4" stroke-linejoin="miter" fill="none" stroke="#000000" d="M273.59 247.043 276.488 244.142 266.344 247.044 276.487 249.939ZM273.59 247.043"/>
<path d="M289.129 239.066C289.129 342.742 271.402 426.785 249.535 426.785 227.672 426.785 209.945 342.742 209.945 239.066 209.945 135.395 227.672 51.352 249.535 51.352 271.402 51.352 289.129 135.395 289.129 239.066ZM289.129 239.066" fill="#ffcc00" fill-opacity=".12628"/>
<path stroke-width="2.83748" stroke-linecap="butt" stroke-miterlimit="4" stroke-linejoin="miter" fill="none" stroke="#aa8800" d="M289.129 239.066C289.129 342.742 271.402 426.785 249.535 426.785 227.672 426.785 209.945 342.742 209.945 239.066 209.945 135.395 227.672 51.352 249.535 51.352 271.402 51.352 289.129 135.395 289.129 239.066ZM289.129 239.066"/>
<path stroke-width=".75" stroke-linecap="butt" stroke-miterlimit="4" stroke-linejoin="miter" fill="none" stroke="#d40000" d="M257.785 74.016 237.965 166.691"/>
<path stroke-width=".75" stroke-linecap="butt" stroke-miterlimit="4" stroke-linejoin="miter" fill="none" stroke="#d40000" d="M258.309 143.766 238.488 236.445"/>
<path stroke-width=".75" stroke-linecap="butt" stroke-miterlimit="4" stroke-linejoin="miter" fill="none" stroke="#d40000" d="M258.578 213.52 238.758 306.195"/>
<path stroke-width=".75" stroke-linecap="butt" stroke-miterlimit="4" stroke-linejoin="miter" fill="none" stroke="#d40000" d="M258.309 283.27 238.488 375.949"/>
<path stroke-width=".75" stroke-linecap="butt" stroke-miterlimit="4" stroke-linejoin="miter" fill="none" stroke="#000000" d="M248.465 116.926 200.684 104.121"/>
<path transform="matrix(1,.267949,-.267949,1,0,0)" d="M220.517 46.975 223.416 44.077 213.271 46.975 223.415 49.875ZM220.517 46.975" fill-rule="evenodd"/>
<path transform="matrix(1,.267949,-.267949,1,0,0)" stroke-width=".772741" stroke-linecap="butt" stroke-miterlimit="4" stroke-linejoin="miter" fill="none" stroke="#000000" d="M220.517 46.975 223.416 44.077 213.271 46.975 223.415 49.875ZM220.517 46.975"/>
<path stroke-width=".75" stroke-linecap="butt" stroke-miterlimit="4" stroke-linejoin="miter" fill="none" stroke="#000000" d="M248.465 116.926 296.242 129.727"/>
<path transform="matrix(-1,-.267949,.267949,-1,0,0)" d="M-301.587-46.975-298.688-49.873-308.829-46.976-298.69-44.08ZM-301.587-46.975" fill-rule="evenodd"/>
<path transform="matrix(-1,-.267949,.267949,-1,0,0)" stroke-width=".772741" stroke-linecap="butt" stroke-miterlimit="4" stroke-linejoin="miter" fill="none" stroke="#000000" d="M-301.587-46.975-298.688-49.873-308.829-46.976-298.69-44.08ZM-301.587-46.975"/>
<path stroke-width=".75" stroke-linecap="butt" stroke-miterlimit="4" stroke-linejoin="miter" fill="none" stroke="#000000" d="M248.195 191.656 200.418 178.855"/>
<path transform="matrix(1,.267949,-.267949,1,0,0)" d="M238.949 116.771 241.848 113.873 231.706 116.77 241.849 119.665ZM238.949 116.771" fill-rule="evenodd"/>
<path transform="matrix(1,.267949,-.267949,1,0,0)" stroke-width=".772741" stroke-linecap="butt" stroke-miterlimit="4" stroke-linejoin="miter" fill="none" stroke="#000000" d="M238.949 116.771 241.848 113.873 231.706 116.77 241.849 119.665ZM238.949 116.771"/>
<path stroke-width=".75" stroke-linecap="butt" stroke-miterlimit="4" stroke-linejoin="miter" fill="none" stroke="#000000" d="M248.195 191.656 295.977 204.461"/>
<path transform="matrix(-1,-.267949,.267949,-1,0,0)" d="M-320.019-116.771-317.123-119.668-327.265-116.771-317.121-113.871ZM-320.019-116.771" fill-rule="evenodd"/>
<path transform="matrix(-1,-.267949,.267949,-1,0,0)" stroke-width=".772741" stroke-linecap="butt" stroke-miterlimit="4" stroke-linejoin="miter" fill="none" stroke="#000000" d="M-320.019-116.771-317.123-119.668-327.265-116.771-317.121-113.871ZM-320.019-116.771"/>
<path stroke-width=".75" stroke-linecap="butt" stroke-miterlimit="4" stroke-linejoin="miter" fill="none" stroke="#000000" d="M248.465 259.156 200.684 246.355"/>
<path transform="matrix(1,.267949,-.267949,1,0,0)" d="M256.075 179.682 258.975 176.784 248.829 179.682 258.972 182.577ZM256.075 179.682" fill-rule="evenodd"/>
<path transform="matrix(1,.267949,-.267949,1,0,0)" stroke-width=".772741" stroke-linecap="butt" stroke-miterlimit="4" stroke-linejoin="miter" fill="none" stroke="#000000" d="M256.075 179.682 258.975 176.784 248.829 179.682 258.972 182.577ZM256.075 179.682"/>
<path stroke-width=".75" stroke-linecap="butt" stroke-miterlimit="4" stroke-linejoin="miter" fill="none" stroke="#000000" d="M248.465 259.156 296.242 271.961"/>
<path transform="matrix(-1,-.267949,.267949,-1,0,0)" d="M-337.146-179.682-334.246-182.58-344.388-179.682-334.248-176.782ZM-337.146-179.682" fill-rule="evenodd"/>
<path transform="matrix(-1,-.267949,.267949,-1,0,0)" stroke-width=".772741" stroke-linecap="butt" stroke-miterlimit="4" stroke-linejoin="miter" fill="none" stroke="#000000" d="M-337.146-179.682-334.246-182.58-344.388-179.682-334.248-176.782ZM-337.146-179.682"/>
<path stroke-width=".75" stroke-linecap="butt" stroke-miterlimit="4" stroke-linejoin="miter" fill="none" stroke="#000000" d="M247.93 331.211 295.707 344.012"/>
<path transform="matrix(-1,-.267949,.267949,-1,0,0)" d="M-354.659-247.04-351.761-249.941-361.901-247.041-351.762-244.144ZM-354.659-247.04" fill-rule="evenodd"/>
<path transform="matrix(-1,-.267949,.267949,-1,0,0)" stroke-width=".772741" stroke-linecap="butt" stroke-miterlimit="4" stroke-linejoin="miter" fill="none" stroke="#000000" d="M-354.659-247.04-351.761-249.941-361.901-247.041-351.762-244.144ZM-354.659-247.04"/>
<path d="M416.266 239.066C416.266 342.645 393.953 426.613 366.43 426.613 338.902 426.613 316.59 342.645 316.59 239.066 316.59 135.488 338.902 51.523 366.43 51.523 393.953 51.523 416.266 135.488 416.266 239.066ZM416.266 239.066" fill="#ffcc00"/>
<path stroke-width="3.182039" stroke-linecap="butt" stroke-miterlimit="4" stroke-linejoin="miter" fill="none" stroke="#aa8800" d="M416.266 239.066C416.266 342.645 393.953 426.613 366.43 426.613 338.902 426.613 316.59 342.645 316.59 239.066 316.59 135.488 338.902 51.523 366.43 51.523 393.953 51.523 416.266 135.488 416.266 239.066ZM416.266 239.066"/>
<path d="M378.309 68.02C378.309 68.02 347.141 33.191 331.645 150.508 316.148 267.828 393.93 80.406 378.309 68.02ZM378.309 68.02" fill="#ffe680"/>
<path stroke-width="1.31811" stroke-linecap="butt" stroke-miterlimit="4" stroke-linejoin="miter" fill="none" stroke="#806600" d="M378.309 68.02C378.309 68.02 347.141 33.191 331.645 150.508 316.148 267.828 393.93 80.406 378.309 68.02ZM378.309 68.02"/>
<path d="M374.098 143.766C374.098 143.766 284.871 295.781 354.277 236.445 423.684 177.109 403.684 90.348 374.098 143.766ZM374.098 143.766" fill="#ffe680"/>
<path stroke-width="1.31811" stroke-linecap="butt" stroke-miterlimit="4" stroke-linejoin="miter" fill="none" stroke="#806600" d="M374.098 143.766C374.098 143.766 284.871 295.781 354.277 236.445 423.684 177.109 403.684 90.348 374.098 143.766ZM374.098 143.766"/>
<path d="M356.535 402.527C356.535 402.527 387.703 437.359 403.199 320.039 418.695 202.719 340.914 390.145 356.535 402.527ZM356.535 402.527" fill="#ffe680"/>
<path stroke-width="1.31811" stroke-linecap="butt" stroke-miterlimit="4" stroke-linejoin="miter" fill="none" stroke="#806600" d="M356.535 402.527C356.535 402.527 387.703 437.359 403.199 320.039 418.695 202.719 340.914 390.145 356.535 402.527ZM356.535 402.527"/>
<path d="M360.746 326.781C360.746 326.781 449.977 174.766 380.57 234.102 311.164 293.441 331.16 380.199 360.746 326.781ZM360.746 326.781" fill="#ffe680"/>
<path stroke-width="1.31811" stroke-linecap="butt" stroke-miterlimit="4" stroke-linejoin="miter" fill="none" stroke="#806600" d="M360.746 326.781C360.746 326.781 449.977 174.766 380.57 234.102 311.164 293.441 331.16 380.199 360.746 326.781ZM360.746 326.781"/>
<path d="M378.309 68.02 332.77 189.23" fill="#d40000"/>
<path stroke-width=".75" stroke-linecap="butt" stroke-dasharray=".75,.75" stroke-miterlimit="4" stroke-linejoin="miter" fill="none" stroke="#d40000" d="M378.309 68.02 332.77 189.23"/>
<path stroke-width=".75" stroke-linecap="butt" stroke-dasharray=".75,.75" stroke-miterlimit="4" stroke-linejoin="miter" fill="none" stroke="#d40000" d="M395.648 128.621 329.738 249.461"/>
<path stroke-width=".75" stroke-linecap="butt" stroke-dasharray=".75,.75" stroke-miterlimit="4" stroke-linejoin="miter" fill="none" stroke="#d40000" d="M405.5 221.051 340.344 339.617"/>
<path stroke-width=".75" stroke-linecap="butt" stroke-dasharray=".75,.75" stroke-miterlimit="4" stroke-linejoin="miter" fill="none" stroke="#d40000" d="M402.09 280.523 363.453 406.664"/>
<path stroke-width=".762133" stroke-linecap="butt" stroke-dasharray="3.048531,.762133" stroke-miterlimit="4" stroke-linejoin="miter" fill="none" stroke="#000000" d="M129.133 16.656V419.871"/>
<path stroke-width=".75" stroke-linecap="butt" stroke-dasharray="3,.75" stroke-miterlimit="4" stroke-linejoin="miter" fill="none" stroke="#000000" d="M148.633 56.656V419.871"/>
<path d="M179.973 239.066C179.973 342.742 162.25 426.785 140.383 426.785 118.516 426.785 100.789 342.742 100.789 239.066 100.789 135.395 118.516 51.352 140.383 51.352 162.25 51.352 179.973 135.395 179.973 239.066ZM179.973 239.066" fill="#ffcc00" fill-opacity=".12628"/>
<path stroke-width="2.83748" stroke-linecap="butt" stroke-miterlimit="4" stroke-linejoin="miter" fill="none" stroke="#aa8800" d="M179.973 239.066C179.973 342.742 162.25 426.785 140.383 426.785 118.516 426.785 100.789 342.742 100.789 239.066 100.789 135.395 118.516 51.352 140.383 51.352 162.25 51.352 179.973 135.395 179.973 239.066ZM179.973 239.066"/>
<path stroke-width=".75" stroke-linecap="butt" stroke-miterlimit="4" stroke-linejoin="miter" fill="none" stroke="#d40000" d="M148.633 74.016 128.813 166.691"/>
<path transform="matrix(-.213873,1,-1,-.213873,0,0)" d="M43.256-157.267C43.254-155.649 41.941-154.333 40.32-154.334 38.703-154.336 37.387-155.648 37.388-157.27 37.386-158.886 38.702-160.203 40.319-160.201 41.941-160.2 43.253-158.887 43.256-157.267ZM43.256-157.267" fill="#d40000" fill-rule="evenodd"/>
<path transform="matrix(-.213873,1,-1,-.213873,0,0)" stroke-width=".782308" stroke-linecap="butt" stroke-miterlimit="4" stroke-linejoin="miter" fill="none" stroke="#d40000" d="M43.256-157.267C43.254-155.649 41.941-154.333 40.32-154.334 38.703-154.336 37.387-155.648 37.388-157.27 37.386-158.886 38.702-160.203 40.319-160.201 41.941-160.2 43.253-158.887 43.256-157.267ZM43.256-157.267"/>
<path transform="matrix(-.213873,1,-1,-.213873,0,0)" d="M135.931-157.267C135.933-155.651 134.617-154.334 133-154.336 131.379-154.333 130.066-155.65 130.064-157.266 130.065-158.888 131.378-160.2 132.999-160.203 134.62-160.202 135.932-158.889 135.931-157.267ZM135.931-157.267" fill="#d40000" fill-rule="evenodd"/>
<path transform="matrix(-.213873,1,-1,-.213873,0,0)" stroke-width=".782308" stroke-linecap="butt" stroke-miterlimit="4" stroke-linejoin="miter" fill="none" stroke="#d40000" d="M135.931-157.267C135.933-155.651 134.617-154.334 133-154.336 131.379-154.333 130.066-155.65 130.064-157.266 130.065-158.888 131.378-160.2 132.999-160.203 134.62-160.202 135.932-158.889 135.931-157.267ZM135.931-157.267"/>
<path stroke-width=".75" stroke-linecap="butt" stroke-miterlimit="4" stroke-linejoin="miter" fill="none" stroke="#d40000" d="M149.156 143.766 129.332 236.445"/>
<path transform="matrix(-.213873,1,-1,-.213873,0,0)" d="M109.848-172.032C109.846-170.415 108.534-169.099 106.916-169.101 105.295-169.102 103.979-170.414 103.98-172.035 103.981-173.653 105.294-174.969 106.915-174.968 108.533-174.966 109.848-173.654 109.848-172.032ZM109.848-172.032" fill="#d40000" fill-rule="evenodd"/>
<path transform="matrix(-.213873,1,-1,-.213873,0,0)" stroke-width=".782308" stroke-linecap="butt" stroke-miterlimit="4" stroke-linejoin="miter" fill="none" stroke="#d40000" d="M109.848-172.032C109.846-170.415 108.534-169.099 106.916-169.101 105.295-169.102 103.979-170.414 103.98-172.035 103.981-173.653 105.294-174.969 106.915-174.968 108.533-174.966 109.848-173.654 109.848-172.032ZM109.848-172.032"/>
<path transform="matrix(-.213873,1,-1,-.213873,0,0)" d="M202.527-172.034C202.525-170.416 201.213-169.1 199.592-169.101 197.975-169.099 196.658-170.415 196.66-172.033 196.657-173.653 197.974-174.966 199.591-174.968 201.212-174.967 202.528-173.655 202.527-172.034ZM202.527-172.034" fill="#d40000" fill-rule="evenodd"/>
<path transform="matrix(-.213873,1,-1,-.213873,0,0)" stroke-width=".782308" stroke-linecap="butt" stroke-miterlimit="4" stroke-linejoin="miter" fill="none" stroke="#d40000" d="M202.527-172.034C202.525-170.416 201.213-169.1 199.592-169.101 197.975-169.099 196.658-170.415 196.66-172.033 196.657-173.653 197.974-174.966 199.591-174.968 201.212-174.967 202.528-173.655 202.527-172.034ZM202.527-172.034"/>
<path stroke-width=".75" stroke-linecap="butt" stroke-miterlimit="4" stroke-linejoin="miter" fill="none" stroke="#d40000" d="M149.422 213.52 129.602 306.195"/>
<path transform="matrix(-.213873,1,-1,-.213873,0,0)" d="M176.495-186.556C176.494-184.935 175.181-183.623 173.56-183.624 171.939-183.621 170.627-184.938 170.628-186.555 170.625-188.176 171.942-189.489 173.559-189.491 175.18-189.49 176.492-188.177 176.495-186.556ZM176.495-186.556" fill="#d40000" fill-rule="evenodd"/>
<path transform="matrix(-.213873,1,-1,-.213873,0,0)" stroke-width=".782308" stroke-linecap="butt" stroke-miterlimit="4" stroke-linejoin="miter" fill="none" stroke="#d40000" d="M176.495-186.556C176.494-184.935 175.181-183.623 173.56-183.624 171.939-183.621 170.627-184.938 170.628-186.555 170.625-188.176 171.942-189.489 173.559-189.491 175.18-189.49 176.492-188.177 176.495-186.556ZM176.495-186.556"/>
<path transform="matrix(-.213873,1,-1,-.213873,0,0)" d="M269.171-186.557C269.174-184.936 267.857-183.623 266.24-183.621 264.619-183.622 263.307-184.935 263.304-186.556 263.306-188.173 264.618-189.489 266.239-189.488 267.856-189.49 269.173-188.174 269.171-186.557ZM269.171-186.557" fill="#d40000" fill-rule="evenodd"/>
<path transform="matrix(-.213873,1,-1,-.213873,0,0)" stroke-width=".782308" stroke-linecap="butt" stroke-miterlimit="4" stroke-linejoin="miter" fill="none" stroke="#d40000" d="M269.171-186.557C269.174-184.936 267.857-183.623 266.24-183.621 264.619-183.622 263.307-184.935 263.304-186.556 263.306-188.173 264.618-189.489 266.239-189.488 267.856-189.49 269.173-188.174 269.171-186.557ZM269.171-186.557"/>
<path stroke-width=".75" stroke-linecap="butt" stroke-miterlimit="4" stroke-linejoin="miter" fill="none" stroke="#d40000" d="M149.156 283.27 129.332 375.949"/>
<path transform="matrix(-.213873,1,-1,-.213873,0,0)" d="M243.249-200.564C243.248-198.946 241.935-197.63 240.314-197.631 238.697-197.633 237.381-198.945 237.382-200.566 237.383-202.184 238.696-203.5 240.317-203.499 241.935-203.497 243.25-202.185 243.249-200.564ZM243.249-200.564" fill="#d40000" fill-rule="evenodd"/>
<path transform="matrix(-.213873,1,-1,-.213873,0,0)" stroke-width=".782308" stroke-linecap="butt" stroke-miterlimit="4" stroke-linejoin="miter" fill="none" stroke="#d40000" d="M243.249-200.564C243.248-198.946 241.935-197.63 240.314-197.631 238.697-197.633 237.381-198.945 237.382-200.566 237.383-202.184 238.696-203.5 240.317-203.499 241.935-203.497 243.25-202.185 243.249-200.564ZM243.249-200.564"/>
<path transform="matrix(-.213873,1,-1,-.213873,0,0)" d="M335.929-200.565C335.927-198.947 334.615-197.631 332.994-197.632 331.377-197.63 330.06-198.946 330.062-200.564 330.059-202.184 331.376-203.497 332.993-203.499 334.614-203.498 335.926-202.185 335.929-200.565ZM335.929-200.565" fill="#d40000" fill-rule="evenodd"/>
<path transform="matrix(-.213873,1,-1,-.213873,0,0)" stroke-width=".782308" stroke-linecap="butt" stroke-miterlimit="4" stroke-linejoin="miter" fill="none" stroke="#d40000" d="M335.929-200.565C335.927-198.947 334.615-197.631 332.994-197.632 331.377-197.63 330.06-198.946 330.062-200.564 330.059-202.184 331.376-203.497 332.993-203.499 334.614-203.498 335.926-202.185 335.929-200.565ZM335.929-200.565"/>
<text xml:space="preserve" transform="matrix(1 0 0 1 0 0)" font-size="13" font-family="Verdana"><tspan y="9.648425" x="124.5251 132.7801 141.03511 146.9761 155.23111 163.48612">10-15&#x00ba;</tspan></text>
<path stroke-width=".75" stroke-linecap="butt" stroke-dasharray=".75,.75" stroke-miterlimit="4" stroke-linejoin="miter" fill="none" stroke="#000000" d="M129.133 16.656C129.133 16.656 143.25 5.059 163.836 17.277"/>
</g>
</svg>
