<svg xmlns="http://www.w3.org/2000/svg" xmlns:xlink="http://www.w3.org/1999/xlink" version="1.1" width="385.62944pt" height="166.92488pt" viewBox="0 0 385.62944 166.92488">
<g>
<path stroke-width="1.31811" stroke-linecap="butt" stroke-miterlimit="4" stroke-linejoin="miter" fill="none" stroke="#000000" d="M1.699 139.199C1.699 139.199-2.32 153.129 5.449 157.684 13.215 162.234 47.77 166.52 54.465 166.254 61.164 165.984 97.59 167.059 105.09 164.109 112.59 161.164 123.574 157.145 125.449 146.969 127.324 136.789 124.645 129.289 120.895 120.719 117.145 112.145 117.949 89.914 117.949 89.914 117.949 89.914 120.09 62.594 122.5 55.359 124.914 48.129 121.699 40.359 115.805 35.539 109.914 30.719 85.27 24.289 75.895 24.289 66.52 24.289 29.02 19.469 25 25.094 20.984 30.719 16.699 33.664 13.215 50.004 9.734 66.344 9.465 114.289 7.055 120.719 4.645 127.145 1.965 140.539 1.965 140.539ZM1.699 139.199"/>
<path stroke-width="1.885039" stroke-linecap="butt" stroke-miterlimit="4" stroke-linejoin="miter" fill="none" stroke="#447821" d="M119.555 113.484C119.555 113.484 231.52-17.23 81.25 79.469"/>
<path transform="matrix(1,-.643494,.643494,1,0,0)" d="M38.241 100.206 19.19 93.2 38.242 86.194C35.198 90.329 35.216 95.989 38.241 100.206ZM38.241 100.206" fill="#447821" fill-rule="evenodd"/>
<path transform="matrix(1,-.643494,.643494,1,0,0)" stroke-width="1.089822" stroke-linecap="butt" stroke-linejoin="round" fill="none" stroke="#447821" d="M38.241 100.206 19.19 93.2 38.242 86.194C35.198 90.329 35.216 95.989 38.241 100.206ZM38.241 100.206"/>
<path stroke-width="1.31811" stroke-linecap="butt" stroke-miterlimit="4" stroke-linejoin="miter" fill="none" stroke="#000000" d="M171.605 137.742C171.605 137.742 167.586 151.672 175.355 156.227 183.125 160.777 217.676 165.066 224.375 164.797 231.07 164.527 244.195 162.652 251.695 159.707 259.195 156.762 267.23 140.691 269.105 130.512 270.98 120.332 267.332 108.613 271.516 100.242 285.363 84.289 310.789 42.754 291.605 27.117 259.496 22.91 273.641 34.086 247.676 42.117 241.063 44.129 201.336 45.332 197.855 61.672 194.375 78.012 179.375 112.832 176.961 119.262 174.551 125.691 171.875 139.082 171.875 139.082ZM171.605 137.742"/>
<path stroke-width=".75" stroke-linecap="butt" stroke-miterlimit="4" stroke-linejoin="miter" fill="none" stroke="#000000" d="M234.836 164.379C256.262 160.359 241.262 145.359 241.262 145.359 241.262 145.359 222.781 137.324 203.227 137.859 183.676 138.395 211.531 101.164 211.531 101.164 211.531 101.164 224.926 95.004 227.871 78.129 238.074 55.813 270.473 54.27 257.336 37.684"/>
<path stroke-width="1.477196" stroke-linecap="butt" stroke-miterlimit="4" stroke-linejoin="miter" fill="none" stroke="#447821" d="M230.105 90.848 190.973 7.09"/>
<path transform="matrix(-.467185,-1,1,-.467185,0,0)" d="M-148.506 159.98-164.591 154.067-148.507 148.151C-151.076 151.642-151.061 156.419-148.506 159.98ZM-148.506 159.98" fill="#447821" fill-rule="evenodd"/>
<path transform="matrix(-.467185,-1,1,-.467185,0,0)" stroke-width=".920112" stroke-linecap="butt" stroke-linejoin="round" fill="none" stroke="#447821" d="M-148.506 159.98-164.591 154.067-148.507 148.151C-151.076 151.642-151.061 156.419-148.506 159.98ZM-148.506 159.98"/>
<path stroke-width="1.31811" stroke-linecap="butt" stroke-miterlimit="4" stroke-linejoin="miter" fill="none" stroke="#000000" d="M310.168 137.445C310.168 137.445 306.152 151.375 313.918 155.926 321.688 160.48 332.566 157.379 339.262 157.113 345.957 156.844 354.16 140.383 361.66 137.438 367.832 129.758 365.453 124.102 367.328 113.922 369.203 103.746 379.758 75.168 383.941 66.801 392.77 13.914 341.75 43.762 336.418 61.375 332.938 77.711 317.938 112.535 315.527 118.961 313.117 125.391 310.438 138.785 310.438 138.785ZM310.168 137.445"/>
<path stroke-width=".75" stroke-linecap="butt" stroke-miterlimit="4" stroke-linejoin="miter" fill="none" stroke="#000000" d="M314.957 119.727C314.957 119.727 295.07 167.457 328.402 149.652 348.785 138.766 346.207 131.848 336.547 133.555 326.887 135.258 317.984 142.645 323.859 145.484 329.73 148.328 334.844 140.184 334.844 140.184"/>
<path stroke-width="1.352576" stroke-linecap="butt" stroke-miterlimit="4" stroke-linejoin="miter" fill="none" stroke="#447821" d="M328.516 75.336 313.313 .133"/>
<path transform="matrix(-.202138,-1,1,-.202138,0,0)" d="M-122.003 306.87-137.936 301.012-122.001 295.151C-124.548 298.609-124.532 303.343-122.003 306.87ZM-122.003 306.87" fill="#447821" fill-rule="evenodd"/>
<path transform="matrix(-.202138,-1,1,-.202138,0,0)" stroke-width=".911461" stroke-linecap="butt" stroke-linejoin="round" fill="none" stroke="#447821" d="M-122.003 306.87-137.936 301.012-122.001 295.151C-124.548 298.609-124.532 303.343-122.003 306.87ZM-122.003 306.87"/>
<path stroke-width="1.31811" stroke-linecap="butt" stroke-dasharray="10.544882,5.272441" stroke-miterlimit="4" stroke-linejoin="miter" fill="none" stroke="#ff0000" d="M309.707 148.891C309.707 148.891 308.461 137.723 314.957 119.727 321.449 101.73 337.184 66.285 336.418 61.375"/>
</g>
</svg>
